<?xml version="1.0" encoding="utf-8"?>
<!-- Generator: Adobe Illustrator 21.0.1, SVG Export Plug-In . SVG Version: 6.00 Build 0)  -->
<svg version="1.1" id="Layer_1" xmlns="http://www.w3.org/2000/svg" xmlns:xlink="http://www.w3.org/1999/xlink" x="0px" y="0px"
	 viewBox="0 0 566.9 396.9" style="enable-background:new 0 0 566.9 396.9;" xml:space="preserve">
<style type="text/css">
	.st0{fill:#FFCC00;}
	.st1{fill:#FFFFFF;}
</style>
<g>
	<g>
		<g>
			<g>
				<path class="st0" d="M111,233.7c-1.1,0-2.5-0.1-4.1-0.7l-62.6-21.5c-3.1-1-5.6-3.2-7.1-6.2v-0.1c-1.4-3-1.6-6.3-0.6-9.3
					l52.5-153c1.1-3.2,3.3-5.7,6.3-7.2s6.4-1.7,9.5-0.6l62.2,21.7c0.8,0.2,1.5,0.6,2.3,1l9.8,3.5c7.1,2.5,15,2,21.8-1.3l6.1-3
					c12.5-6.1,27.2-7.1,40.5-2.5l122,42.1c5.2,1.9,8.5,6.8,8.4,12.1c-0.2,4.2-1.9,25.6-18.2,36.9c-10.7,7.4-24.5,8.4-40.9,2.8
					l-39.8-13.7c-5.1,11.2-15.9,29.3-35.7,40c-10.7,5.7-22.5,8.6-35.1,8.6c-10.8,0-22.5-2.1-34.8-6.3c-3.2-1.1-5.7-3.3-7.2-6.3
					s-1.7-6.4-0.6-9.5c2.3-6.5,9.3-10,15.8-7.7c19.9,6.8,36.7,6.6,50-0.5c20.1-10.8,27.5-34.4,28.3-37v-0.1c0.9-3.3,3.1-6.1,6.1-7.7
					c3.1-1.7,6.7-2,9.9-0.9l51.2,17.5c8.4,2.9,14.9,3,18.8,0.3c3-2.1,4.8-5.8,5.8-8.7L239.7,77.9c-6.9-2.4-14.7-2-21.5,1.3l-6.1,3
					c-12.7,6.2-27.6,7-40.9,2.3h-0.1l-48.3,140.9C121.1,230.4,116.3,233.7,111,233.7z M64.3,192.2l39.1,13.4L147.7,76l-39.1-13.4
					L64.3,192.2z"/>
			</g>
		</g>
	</g>
	<g>
		<g>
			<path class="st1" d="M243.4,362.3c-3.5,0-7-0.6-10.2-1.7c-8-2.7-14.4-8.4-18.1-16c-1-2-1.7-4.2-2.3-6.4l-2.2,1.1
				c-4.3,2.2-9,3.3-13.8,3.3c-3.5,0-7-0.6-10.2-1.7c-8-2.7-14.4-8.4-18.1-16c-1.7-3.6-2.8-7.5-3.1-11.5
				c-10.8-1.2-20.2-7.7-24.9-17.4c-4.8-9.6-4.2-21.2,1.4-30.2c-3-2.7-5.4-5.9-7.1-9.5c-3.7-7.6-4.3-16.1-1.5-24.1
				c2.7-8,8.4-14.4,16-18.1l43.4-21.2c6.1-3,13.5-0.5,16.5,5.6s0.5,13.5-5.6,16.5L160,236.4c-3.3,1.7-4.6,5.7-3,9.1
				c1.7,3.2,5.7,4.6,9.1,3l81.7-40c6.1-3,13.5-0.5,16.5,5.6s0.5,13.5-5.6,16.5l-52.5,25.7l-40.4,19.8c-1.6,0.8-2.9,2.2-3.4,3.9
				c-0.6,1.8-0.5,3.6,0.3,5.2c1.7,3.3,5.8,4.7,9.1,3.1l102.5-50.1c3-1.5,6.3-1.7,9.4-0.6c3.1,1.1,5.6,3.3,7.1,6.3s1.7,6.3,0.6,9.4
				s-3.3,5.6-6.3,7.1L193.8,305c-1.6,0.8-2.9,2.2-3.4,3.9c-0.6,1.8-0.5,3.6,0.3,5.2s2.2,2.9,3.9,3.5c1.8,0.6,3.6,0.5,5.2-0.3
				l30-14.7l63.6-31.1c6.1-3,13.5-0.5,16.5,5.6c1.5,3,1.7,6.3,0.6,9.4s-3.3,5.6-6.3,7.1l-63.6,31.1c-1.6,0.8-2.9,2.2-3.4,3.9
				c-0.6,1.8-0.5,3.6,0.3,5.2s2.2,2.9,3.9,3.5c1.8,0.6,3.6,0.5,5.2-0.3l113.7-55.7c23.5-11.6,45.2-26.3,64.3-43.9l19.6-18l-67-136.9
				c-3-6.1-0.5-13.5,5.6-16.5l59.4-29.1c3-1.5,6.4-1.7,9.5-0.6c3,1,5.6,3.2,7.1,6.2l70.8,145.3c1.5,3,1.7,6.3,0.6,9.4
				c-1.1,3.1-3.3,5.6-6.3,7.1l-57.8,28.2L441,255.6c-21,19.3-44.7,35.4-70.2,47.9l-113.7,55.7C252.9,361.3,248.2,362.3,243.4,362.3z
				 M404.8,82.6l60.2,123l37.1-18.2L442,64.4L404.8,82.6z"/>
		</g>
	</g>
</g>
</svg>
