<?xml version="1.0" encoding="utf-8"?>
<!-- Generator: Adobe Illustrator 21.0.1, SVG Export Plug-In . SVG Version: 6.00 Build 0)  -->
<svg version="1.1" id="Coins" xmlns="http://www.w3.org/2000/svg" xmlns:xlink="http://www.w3.org/1999/xlink" x="0px" y="0px"
	 viewBox="0 0 566.9 566.9" style="enable-background:new 0 0 566.9 566.9;" xml:space="preserve">
<style type="text/css">
	.st0{fill:#FFCC00;}
	.st1{fill:#FFFFFF;}
</style>
<path id="Coin3" class="st0" d="M507.6,438.2H283.4c-11.5,0-20.9,9.4-20.9,20.9v64.6c0,11.5,9.4,20.9,20.9,20.9h224.2
	c11.5,0,20.9-9.4,20.9-20.9v-64.6C528.5,447.6,519.1,438.2,507.6,438.2z M422.5,502.4h-118v-22h118V502.4z M486.5,502.4h-22v-22h22
	V502.4z"/>
<path id="Coin2" class="st0" d="M475.6,374H251.4c-11.5,0-20.9,9.4-20.9,20.9v64.6c0,11.5,9.4,20.9,20.9,20.9h224.2
	c11.5,0,20.9-9.4,20.9-20.9V395C496.6,383.4,487.1,374,475.6,374z M390.6,438.3h-118v-22h118V438.3z M454.6,438.3h-22v-22h22V438.3z
	"/>
<path id="Coin1" class="st0" d="M507.6,309.8H283.4c-11.5,0-20.9,9.4-20.9,20.9v64.6c0,11.5,9.4,20.9,20.9,20.9h224.2
	c11.5,0,20.9-9.4,20.9-20.9v-64.6C528.5,319.2,519.1,309.8,507.6,309.8z M422.5,374h-118v-22h118V374z M486.5,374h-22v-22h22V374z"
	/>
<path id="Bag" class="st1" d="M219.5,544.5h-64c-64.5,0-117-52.5-117-117c0-24.5,6.4-48.8,18.4-70.1l110.9-197.2
	c-9.8-1.8-17.3-10.4-17.3-20.7c0-9.3,6.1-17.2,14.5-20l-43-64.4c-4.3-6.5-4.7-14.8-1-21.6c3.6-6.8,10.7-11.1,18.5-11.1h192
	c7.8,0,14.8,4.2,18.5,11.1s3.3,15.1-1,21.6l-43,64.4c8.4,2.8,14.5,10.7,14.5,20c0,10.3-7.5,18.9-17.3,20.7l54.6,97
	c2.8,4.9,3.4,10.6,1.9,16s-5,9.9-9.9,12.6c-4.8,2.8-10.5,3.5-15.9,2s-10-5-12.7-9.9l-66-117.3h-39.5L93.5,377.9
	c-8.5,15.1-13,32.2-13,49.5c0,41.4,33.6,75,75,75h64c11.6,0,21,9.4,21,21S231,544.5,219.5,544.5z M214.7,118.5h41.5l36-54H178.7
	L214.7,118.5z"/>
</svg>
