<?xml version="1.0" encoding="UTF-8"?>
<!DOCTYPE svg PUBLIC "-//W3C//DTD SVG 1.1//EN" "http://www.w3.org/Graphics/SVG/1.1/DTD/svg11.dtd">
<!-- Creator: CorelDRAW 2017 -->
<svg xmlns="http://www.w3.org/2000/svg" xml:space="preserve" width="623px" height="500px" version="1.1" style="shape-rendering:geometricPrecision; text-rendering:geometricPrecision; image-rendering:optimizeQuality; fill-rule:evenodd; clip-rule:evenodd"
viewBox="0 0 52.942 42.504"
 xmlns:xlink="http://www.w3.org/1999/xlink">
 <defs>
  <style type="text/css">
   <![CDATA[
    .fil1 {fill:#FFCC00}
    .fil0 {fill:white}
   ]]>
  </style>
 </defs>
 <g id="Слой_x0020_1">
  <metadata id="CorelCorpID_0Corel-Layer"/>
  <path class="fil0" d="M15.539 0l32.303 0c2.805,0 5.1,2.295 5.1,5.1l0 32.303c0,2.806 -2.295,5.101 -5.1,5.101l-1.7 0 -1.7 0 -18.593 0 -6.909 0c-0.936,0 -1.701,-0.765 -1.701,-1.7l0 0c0,-0.936 0.765,-1.701 1.701,-1.701l6.909 0 18.593 0 1.7 0 1.7 0c0.464,0 0.888,-0.192 1.198,-0.502 0.31,-0.309 0.502,-0.734 0.502,-1.198l0 -32.303c0,-0.464 -0.192,-0.888 -0.502,-1.198 -0.31,-0.309 -0.734,-0.502 -1.198,-0.502l-32.303 0c-0.464,0 -0.888,0.193 -1.198,0.502 -0.31,0.31 -0.502,0.734 -0.502,1.198l0 0.788 0 0.788 0 1.145 0 3.4 0 1.7 0 19.64 0 3.142c0,3.74 -3.06,6.801 -6.801,6.801l-1.938 0c-2.805,0 -5.1,-2.295 -5.1,-5.101l0 -22.782c0,-3.74 3.06,-6.8 6.801,-6.8l0.798 0 1.14 0 1.7 0 0 -1.145 0 -0.788 0 -0.788c0,-2.805 2.295,-5.1 5.1,-5.1zm-6.8 11.221l-1.14 0 -0.798 0c-0.932,0 -1.781,0.384 -2.399,1.001 -0.618,0.618 -1.002,1.468 -1.002,2.399l0 22.782c0,0.464 0.193,0.889 0.502,1.198 0.31,0.31 0.734,0.502 1.198,0.502l1.938 0c0.932,0 1.781,-0.383 2.399,-1.001 0.618,-0.618 1.002,-1.467 1.002,-2.399l0 -3.142 0 -15.222 0 -4.418 0 -1.7 -1.7 0z"/>
  <path class="fil1" d="M18.94 31.283l25.502 0c0.935,0 1.7,0.765 1.7,1.7l0 0c0,0.935 -0.765,1.7 -1.7,1.7l-25.502 0c-0.936,0 -1.701,-0.765 -1.701,-1.7l0 0c0,-0.935 0.765,-1.7 1.701,-1.7z"/>
  <path class="fil1" d="M18.838 23.462l25.502 0c0.935,0 1.7,0.765 1.7,1.7l0 0c0,0.935 -0.765,1.7 -1.7,1.7l-25.502 0c-0.936,0 -1.701,-0.765 -1.701,-1.7l0 0c0,-0.935 0.765,-1.7 1.701,-1.7z"/>
  <path class="fil1" d="M36.689 7.821l7.651 0c0.935,0 1.7,0.765 1.7,1.7l0 0c0,0.935 -0.765,1.7 -1.7,1.7l-7.651 0c-0.935,0 -1.7,-0.765 -1.7,-1.7l0 0c0,-0.935 0.765,-1.7 1.7,-1.7z"/>
  <path class="fil1" d="M36.689 15.641l7.651 0c0.935,0 1.7,0.765 1.7,1.701l0 0c0,0.935 -0.765,1.7 -1.7,1.7l-7.651 0c-0.935,0 -1.7,-0.765 -1.7,-1.7l0 0c0,-0.936 0.765,-1.701 1.7,-1.701z"/>
  <path class="fil1" d="M18.838 7.821l11.05 0c0.936,0 1.701,0.765 1.701,1.7l0 7.821c0,0.935 -0.765,1.7 -1.701,1.7l-11.05 0c-0.936,0 -1.701,-0.765 -1.701,-1.7l0 -7.821c0,-0.935 0.765,-1.7 1.701,-1.7z"/>
 </g>
</svg>
